<mxfile host="app.diagrams.net" modified="2022-04-06T23:55:58.035Z" agent="5.0 (Macintosh; Intel Mac OS X 10_15_7) AppleWebKit/537.36 (KHTML, like Gecko) Chrome/99.0.4844.83 Safari/537.36" etag="Lpg-XjtK6UPnWKdI_7OX" version="17.4.0" type="github">
  <diagram id="JQdKCIUh37VU37Pg_1na" name="Page-1">
    <mxGraphModel dx="946" dy="492" grid="1" gridSize="10" guides="1" tooltips="1" connect="1" arrows="1" fold="1" page="1" pageScale="1" pageWidth="827" pageHeight="1169" background="#ffffff" backgroundImage="{&quot;src&quot;:&quot;data:image/png;base64,iVBORw0KGgoAAAANSUhEUgAAB4IAAAQ6CAYAAACh7rB1AAAACXBIWXMAAAsTAAALEwEAmpwYAAAgAElEQVR4XuzZMRHAMBDAsE+38Aebsd3LID5pNQSvc847AAAAAAAAAFxv771mZp5/AAAAAAAAAOBuRjAAAAAAAABAjBEMAAAAAAAAEGMEAwAAAAAAAMQYwQAAAAAAAAAxRjAAAAAAAABAjBEMAAAAAAAAEGMEAwAAAAAAAMQYwQAAAAAAAAAxRjAAAAAAAABAjBEMAAAAAAAAEGMEAwAAAAAAAMQYwQAAAAAAAAAxRjAAAAAAAABAjBEMAAAAAAAAEGMEAwAAAAAAAMQYwQAAAAAAAAAxRjAAAAAAAABAjBEMAAAAAAAAEGMEAwAAAAAAAMQYwQAAAAAAAAAxRjAAAAAAAABAjBEMAAAAAAAAEGMEAwAAAAAAAMQYwQAAAAAAAAAxRjAAAAAAAABAjBEMAAAAAAAAEGMEAwAAAAAAAMQYwQAAAAAAAAAxRjAAAAAAAABAjBEMAAAAAAAAEGMEAwAAAAAAAMQYwQAAAAAAAAAxRjAAAAAAAABAjBEMAAAAAAAAEGMEAwAAAAAAAMQYwQAAAAAAAAAxRjAAAAAAAABAjBEMAAAAAAAAEGMEAwAAAAAAAMQYwQAAAAAAAAAxRjAAAAAAAABAjBEMAAAAAAAAEGMEAwAAAAAAAMQYwQAAAAAAAAAxRjAAAAAAAABAjBEMAAAAAAAAEGMEAwAAAAAAAMQYwQAAAAAAAAAxRjAAAAAAAABAjBEMAAAAAAAAEGMEAwAAAAAAAMQYwQAAAAAAAAAxRjAAAAAAAABAjBEMAAAAAAAAEGMEAwAAAAAAAMQYwQAAAAAAAAAxRjAAAAAAAABAjBEMAAAAAAAAEGMEAwAAAAAAAMQYwQAAAAAAAAAxRjAAAAAAAABAjBEMAAAAAAAAEGMEAwAAAAAAAMQYwQAAAAAAAAAxRjAAAAAAAABAjBEMAAAAAAAAEGMEAwAAAAAAAMQYwQAAAAAAAAAxRjAAAAAAAABAjBEMAAAAAAAAEGMEAwAAAAAAAMQYwQAAAAAAAAAxRjAAAAAAAABAjBEMAAAAAAAAEGMEAwAAAAAAAMQYwQAAAAAAAAAxRjAAAAAAAABAjBEMAAAAAAAAEGMEAwAAAAAAAMQYwQAAAAAAAAAxRjAAAAAAAABAjBEMAAAAAAAAEGMEAwAAAAAAAMQYwQAAAAAAAAAxRjAAAAAAAABAjBEMAAAAAAAAEGMEAwAAAAAAAMQYwQAAAAAAAAAxRjAAAAAAAABAjBEMAAAAAAAAEGMEAwAAAAAAAMQYwQAAAAAAAAAxRjAAAAAAAABAjBEMAAAAAAAAEGMEAwAAAAAAAMQYwQAAAAAAAAAxRjAAAAAAAABAjBEMAAAAAAAAEGMEAwAAAAAAAMQYwQAAAAAAAAAxRjAAAAAAAABAjBEMAAAAAAAAEGMEAwAAAAAAAMQYwQAAAAAAAAAxRjAAAAAAAABAjBEMAAAAAAAAEGMEAwAAAAAAAMQYwQAAAAAAAAAxRjAAAAAAAABAjBEMAAAAAAAAEGMEAwAAAAAAAMQYwQAAAAAAAAAxRjAAAAAAAABAjBEMAAAAAAAAEGMEAwAAAAAAAMQYwQAAAAAAAAAxRjAAAAAAAABAjBEMAAAAAAAAEGMEAwAAAAAAAMQYwQAAAAAAAAAxRjAAAAAAAABAjBEMAAAAAAAAEGMEAwAAAAAAAMQYwQAAAAAAAAAxRjAAAAAAAABAjBEMAAAAAAAAEGMEAwAAAAAAAMQYwQAAAAAAAAAxRjAAAAAAAABAjBEMAAAAAAAAEGMEAwAAAAAAAMQYwQAAAAAAAAAxRjAAAAAAAABAjBEMAAAAAAAAEGMEAwAAAAAAAMQYwQAAAAAAAAAxRjAAAAAAAABAjBEMAAAAAAAAEGMEAwAAAAAAAMQYwQAAAAAAAAAxRjAAAAAAAABAjBEMAAAAAAAAEGMEAwAAAAAAAMQYwQAAAAAAAAAxRjAAAAAAAABAjBEMAAAAAAAAEGMEAwAAAAAAAMQYwQAAAAAAAAAxRjAAAAAAAABAjBEMAAAAAAAAEGMEAwAAAAAAAMQYwQAAAAAAAAAxRjAAAAAAAABAjBEMAAAAAAAAEGMEAwAAAAAAAMQYwQAAAAAAAAAxRjAAAAAAAABAjBEMAAAAAAAAEGMEAwAAAAAAAMQYwQAAAAAAAAAxRjAAAAAAAABAjBEMAAAAAAAAEGMEAwAAAAAAAMQYwQAAAAAAAAAxRjAAAAAAAABAjBEMAAAAAAAAEGMEAwAAAAAAAMQYwQAAAAAAAAAxRjAAAAAAAABAjBEMAAAAAAAAEGMEAwAAAAAAAMQYwQAAAAAAAAAxRjAAAAAAAABAjBEMAAAAAAAAEGMEAwAAAAAAAMQYwQAAAAAAAAAxRjAAAAAAAABAjBEMAAAAAAAAEGMEAwAAAAAAAMQYwQAAAAAAAAAxRjAAAAAAAABAjBEMAAAAAAAAEGMEAwAAAAAAAMQYwQAAAAAAAAAxRjAAAAAAAABAjBEMAAAAAAAAEGMEAwAAAAAAAMQYwQAAAAAAAAAxRjAAAAAAAABAjBEMAAAAAAAAEGMEAwAAAAAAAMQYwQAAAAAAAAAxRjAAAAAAAABAjBEMAAAAAAAAEGMEAwAAAAAAAMQYwQAAAAAAAAAxRjAAAAAAAABAjBEMAAAAAAAAEGMEAwAAAAAAAMQYwQAAAAAAAAAxRjAAAAAAAABAjBEMAAAAAAAAEGMEAwAAAAAAAMQYwQAAAAAAAAAxRjAAAAAAAABAjBEMAAAAAAAAEGMEAwAAAAAAAMQYwQAAAAAAAAAxRjAAAAAAAABAjBEMAAAAAAAAEGMEAwAAAAAAAMQYwQAAAAAAAAAxRjAAAAAAAABAjBEMAAAAAAAAEGMEAwAAAAAAAMQYwQAAAAAAAAAxRjAAAAAAAABAjBEMAAAAAAAAEGMEAwAAAAAAAMQYwQAAAAAAAAAxRjAAAAAAAABAjBEMAAAAAAAAEGMEAwAAAAAAAMQYwQAAAAAAAAAxRjAAAAAAAABAjBEMAAAAAAAAEGMEAwAAAAAAAMQYwQAAAAAAAAAxRjAAAAAAAABAjBEMAAAAAAAAEGMEAwAAAAAAAMQYwQAAAAAAAAAxRjAAAAAAAABAjBEMAAAAAAAAEGMEAwAAAAAAAMQYwQAAAAAAAAAxRjAAAAAAAABAjBEMAAAAAAAAEGMEAwAAAAAAAMQYwQAAAAAAAAAxRjAAAAAAAABAjBEMAAAAAAAAEGMEAwAAAAAAAMQYwQAAAAAAAAAxRjAAAAAAAABAjBEMAAAAAAAAEGMEAwAAAAAAAMQYwQAAAAAAAAAxRjAAAAAAAABAjBEMAAAAAAAAEGMEAwAAAAAAAMQYwQAAAAAAAAAxRjAAAAAAAABAjBEMAAAAAAAAEGMEAwAAAAAAAMQYwQAAAAAAAAAxRjAAAAAAAABAjBEMAAAAAAAAEGMEAwAAAAAAAMQYwQAAAAAAAAAxRjAAAAAAAABAjBEMAAAAAAAAEGMEAwAAAAAAAMQYwQAAAAAAAAAxRjAAAAAAAABAjBEMAAAAAAAAEGMEAwAAAAAAAMQYwQAAAAAAAAAxRjAAAAAAAABAjBEMAAAAAAAAEGMEAwAAAAAAAMQYwQAAAAAAAAAxRjAAAAAAAABAjBEMAAAAAAAAEGMEAwAAAAAAAMQYwQAAAAAAAAAxRjAAAAAAAABAjBEMAAAAAAAAEGMEAwAAAAAAAMQYwQAAAAAAAAAxRjAAAAAAAABAjBEMAAAAAAAAEGMEAwAAAAAAAMQYwQAAAAAAAAAxRjAAAAAAAABAjBEMAAAAAAAAEGMEAwAAAAAAAMQYwQAAAAAAAAAxRjAAAAAAAABAjBEMAAAAAAAAEGMEAwAAAAAAAMQYwQAAAAAAAAAxRjAAAAAAAABAjBEMAAAAAAAAEGMEAwAAAAAAAMQYwQAAAAAAAAAxRjAAAAAAAABAjBEMAAAAAAAAEGMEAwAAAAAAAMQYwQAAAAAAAAAxRjAAAAAAAABAjBEMAAAAAAAAEGMEAwAAAAAAAMQYwQAAAAAAAAAxRjAAAAAAAABAjBEMAAAAAAAAEGMEAwAAAAAAAMQYwQAAAAAAAAAxRjAAAAAAAABAjBEMAAAAAAAAEGMEAwAAAAAAAMQYwQAAAAAAAAAxRjAAAAAAAABAjBEMAAAAAAAAEGMEAwAAAAAAAMQYwQAAAAAAAAAxRjAAAAAAAABAjBEMAAAAAAAAEGMEAwAAAAAAAMQYwQAAAAAAAAAxRjAAAAAAAABAjBEMAAAAAAAAEGMEAwAAAAAAAMQYwQAAAAAAAAAxRjAAAAAAAABAjBEMAAAAAAAAEGMEAwAAAAAAAMQYwQAAAAAAAAAxRjAAAAAAAABAjBEMAAAAAAAAEGMEAwAAAAAAAMQYwQAAAAAAAAAxRjAAAAAAAABAjBEMAAAAAAAAEGMEAwAAAAAAAMQYwQAAAAAAAAAxRjAAAAAAAABAjBEMAAAAAAAAEGMEAwAAAAAAAMQYwQAAAAAAAAAxRjAAAAAAAABAjBEMAAAAAAAAEGMEAwAAAAAAAMQYwQAAAAAAAAAxRjAAAAAAAABAjBEMAAAAAAAAEGMEAwAAAAAAAMQYwQAAAAAAAAAxRjAAAAAAAABAjBEMAAAAAAAAEGMEAwAAAAAAAMQYwQAAAAAAAAAxRjAAAAAAAABAjBEMAAAAAAAAEGMEAwAAAAAAAMQYwQAAAAAAAAAxRjAAAAAAAABAjBEMAAAAAAAAEGMEAwAAAAAAAMQYwQAAAAAAAAAxRjAAAAAAAABAjBEMAAAAAAAAEGMEAwAAAAAAAMQYwQAAAAAAAAAxRjAAAAAAAABAjBEMAAAAAAAAEGMEAwAAAAAAAMQYwQAAAAAAAAAxRjAAAAAAAABAjBEMAAAAAAAAEGMEAwAAAAAAAMQYwQAAAAAAAAAxRjAAAAAAAABAjBEMAAAAAAAAEGMEAwAAAAAAAMQYwQAAAAAAAAAxRjAAAAAAAABAjBEMAAAAAAAAEGMEAwAAAAAAAMQYwQAAAAAAAAAxRjAAAAAAAABAjBEMAAAAAAAAEGMEAwAAAAAAAMQYwQAAAAAAAAAxRjAAAAAAAABAjBEMAAAAAAAAEGMEAwAAAAAAAMQYwQAAAAAAAAAxRjAAAAAAAABAjBEMAAAAAAAAEGMEAwAAAAAAAMQYwQAAAAAAAAAxRjAAAAAAAABAjBEMAAAAAAAAEGMEAwAAAAAAAMQYwQAAAAAAAAAxRjAAAAAAAABAjBEMAAAAAAAAEGMEAwAAAAAAAMQYwQAAAAAAAAAxRjAAAAAAAABAjBEMAAAAAAAAEGMEAwAAAAAAAMQYwQAAAAAAAAAxRjAAAAAAAABAjBEMAAAAAAAAEGMEAwAAAAAAAMQYwQAAAAAAAAAxRjAAAAAAAABAjBEMAAAAAAAAEGMEAwAAAAAAAMQYwQAAAAAAAAAxRjAAAAAAAABAjBEMAAAAAAAAEGMEAwAAAAAAAMQYwQAAAAAAAAAxRjAAAAAAAABAjBEMAAAAAAAAEGMEAwAAAAAAAMQYwQAAAAAAAAAxRjAAAAAAAABAjBEMAAAAAAAAEGMEAwAAAAAAAMQYwQAAAAAAAAAxRjAAAAAAAABAjBEMAAAAAAAAEGMEAwAAAAAAAMQYwQAAAAAAAAAxRjAAAAAAAABAjBEMAAAAAAAAEGMEAwAAAAAAAMQYwQAAAAAAAAAxRjAAAAAAAABAjBEMAAAAAAAAEGMEAwAAAAAAAMQYwQAAAAAAAAAxRjAAAAAAAABAjBEMAAAAAAAAEGMEAwAAAAAAAMQYwQAAAAAAAAAxRjAAAAAAAABAjBEMAAAAAAAAEGMEAwAAAAAAAMQYwQAAAAAAAAAxRjAAAAAAAABAjBEMAAAAAAAAEGMEAwAAAAAAAMQYwQAAAAAAAAAxRjAAAAAAAABAjBEMAAAAAAAAEGMEAwAAAAAAAMQYwQAAAAAAAAAxRjAAAAAAAABAjBEMAAAAAAAAEGMEAwAAAAAAAMQYwQAAAAAAAAAxRjAAAAAAAABAjBEMAAAAAAAAEGMEAwAAAAAAAMQYwQAAAAAAAAAxRjAAAAAAAABAjBEMAAAAAAAAEGMEAwAAAAAAAMQYwQAAAAAAAAAxRjAAAAAAAABAjBEMAAAAAAAAEGMEAwAAAAAAAMQYwQAAAAAAAAAxRjAAAAAAAABAjBEMAAAAAAAAEGMEAwAAAAAAAMQYwQAAAAAAAAAxRjAAAAAAAABAjBEMAAAAAAAAEGMEAwAAAAAAAMQYwQAAAAAAAAAxRjAAAAAAAABAjBEMAAAAAAAAEGMEAwAAAAAAAMQYwQAAAAAAAAAxRjAAAAAAAABAjBEMAAAAAAAAEGMEAwAAAAAAAMQYwQAAAAAAAAAxRjAAAAAAAABAjBEMAAAAAAAAEGMEAwAAAAAAAMQYwQAAAAAAAAAxRjAAAAAAAABAjBEMAAAAAAAAEGMEAwAAAAAAAMQYwQAAAAAAAAAxRjAAAAAAAABAjBEMAAAAAAAAEGMEAwAAAAAAAMQYwQAAAAAAAAAxRjAAAAAAAABAjBEMAAAAAAAAEGMEAwAAAAAAAMQYwQAAAAAAAAAxRjAAAAAAAABAjBEMAAAAAAAAEGMEAwAAAAAAAMQYwQAAAAAAAAAxRjAAAAAAAABAjBEMAAAAAAAAEGMEAwAAAAAAAMQYwQAAAAAAAAAxRjAAAAAAAABAjBEMAAAAAAAAEGMEAwAAAAAAAMQYwQAAAAAAAAAxRjAAAAAAAABAjBEMAAAAAAAAEGMEAwAAAAAAAMQYwQAAAAAAAAAxRjAAAAAAAABAjBEMAAAAAAAAEGMEAwAAAAAAAMQYwQAAAAAAAAAxRjAAAAAAAABAjBEMAAAAAAAAEGMEAwAAAAAAAMQYwQAAAAAAAAAxRjAAAAAAAABAjBEMAAAAAAAAEGMEAwAAAAAAAMQYwQAAAAAAAAAxRjAAAAAAAABAjBEMAAAAAAAAEGMEAwAAAAAAAMQYwQAAAAAAAAAxRjAAAAAAAABAjBEMAAAAAAAAEGMEAwAAAAAAAMQYwQAAAAAAAAAxRjAAAAAAAABAjBEMAAAAAAAAEGMEAwAAAAAAAMQYwQAAAAAAAAAxRjAAAAAAAABAjBEMAAAAAAAAEGMEAwAAAAAAAMQYwQAAAABfe3ZMAwAAwDDIv+u52NGADQAAAGJEMAAAAAAAAECMCAYAAAAAAACIEcEAAAAAAAAAMSIYAAAAAAAAIEYEAwAAAAAAAMSIYAAAAAAAAIAYEQwAAAAAAAAQI4IBAAAAAAAAYkQwAAAAAAAAQIwIBgAAAAAAAIgRwQAAAAAAAAAxIhgAAAAAAAAgRgQDAAAAAAAAxIhgAAAAAAAAgBgRDAAAAAAAABAjggEAAAAAAABiRDAAAAAAAABAjAgGAAAAAAAAiBHBAAAAAAAAADEiGAAAAAAAACBGBAMAAAAAAADEiGAAAAAAAACAGBEMAAAAAAAAECOCAQAAAAAAAGJEMAAAAAAAAECMCAYAAAAAAACIEcEAAAAAAAAAMSIYAAAAAAAAIEYEAwAAAAAAAMSIYAAAAAAAAIAYEQwAAAAAAAAQI4IBAAAAAAAAYkQwAAAAAAAAQIwIBgAAAAAAAIgRwQAAAAAAAAAxIhgAAAAAAAAgRgQDAAAAAAAAxIhgAAAAAAAAgBgRDAAAAAAAABAjggEAAAAAAABiRDAAAAAAAABAjAgGAAAAAAAAiBHBAAAAAAAAADEiGAAAAAAAACBGBAMAAAAAAADEiGAAAAAAAACAGBEMAAAAAAAAECOCAQAAAAAAAGJEMAAAAAAAAECMCAYAAAAAAACIEcEAAAAAAAAAMSIYAAAAAAAAIEYEAwAAAAAAAMSIYAAAAAAAAIAYEQwAAAAAAAAQI4IBAAAAAAAAYkQwAAAAAAAAQIwIBgAAAAAAAIgRwQAAAAAAAAAxIhgAAAAAAAAgRgQDAAAAAAAAxIhgAAAAAAAAgBgRDAAAAAAAABAjggEAAAAAAABiRDAAAAAAAABAjAgGAAAAAAAAiBHBAAAAAAAAADEiGAAAAAAAACBGBAMAAAAAAADEiGAAAAAAAACAGBEMAAAAAAAAECOCAQAAAAAAAGJEMAAAAAAAAECMCAYAAAAAAACIEcEAAAAAAAAAMSIYAAAAAAAAIEYEAwAAAAAAAMSIYAAAAAAAAIAYEQwAAAAAAAAQI4IBAAAAAAAAYkQwAAAAAAAAQIwIBgAAAAAAAIgRwQAAAAAAAAAxIhgAAAAAAAAgRgQDAAAAAAAAxIhgAAAAAAAAgBgRDAAAAAAAABAjggEAAAAAAABiRDAAAAAAAABAjAgGAAAAAAAAiBHBAAAAAAAAADEiGAAAAAAAACBGBAMAAAAAAADEiGAAAAAAAACAGBEMAAAAAAAAECOCAQAAAAAAAGJEMAAAAAAAAECMCAYAAAAAAACIEcEAAAAAAAAAMSIYAAAAAAAAIEYEAwAAAAAAAMSIYAAAAAAAAIAYEQwAAAAAAAAQI4IBAAAAAAAAYkQwAAAAAAAAQIwIBgAAAAAAAIgRwQAAAAAAAAAxIhgAAAAAAAAgRgQDAAAAAAAAxIhgAAAAAAAAgBgRDAAAAAAAABAjggEAAAAAAABiRDAAAAAAAABAjAgGAAAAAAAAiBHBAAAAAAAAADEiGAAAAAAAACBGBAMAAAAAAADEiGAAAAAAAACAGBEMAAAAAAAAECOCAQAAAAAAAGJEMAAAAAAAAECMCAYAAAAAAACIEcEAAAAAAAAAMSIYAAAAAAAAIEYEAwAAAAAAAMSIYAAAAAAAAIAYEQwAAAAAAAAQI4IBAAAAAAAAYkQwAAAAAAAAQIwIBgAAAAAAAIgRwQAAAAAAAAAxIhgAAAAAAAAgRgQDAAAAAAAAxIhgAAAAAAAAgBgRDAAAAAAAABAjggEAAAAAAABiRDAAAAAAAABAjAgGAAAAAAAAiBHBAAAAAAAAADEiGAAAAAAAACBGBAMAAAAAAADEiGAAAAAAAACAGBEMAAAAAAAAECOCAQAAAAAAAGJEMAAAAAAAAECMCAYAAAAAAACIEcEAAAAAAAAAMSIYAAAAAAAAIEYEAwAAAAAAAMSIYAAAAAAAAIAYEQwAAAAAAAAQI4IBAAAAAAAAYkQwAAAAAAAAQIwIBgAAAAAAAIgRwQAAAAAAAAAxIhgAAAAAAAAgRgQDAAAAAAAAxIhgAAAAAAAAgBgRDAAAAAAAABAjggEAAAAAAABiRDAAAAAAAABAjAgGAAAAAAAAiBHBAAAAAAAAADEiGAAAAAAAACBGBAMAAAAAAADEiGAAAAAAAACAGBEMAAAAAAAAECOCAQAAAAAAAGJEMAAAAAAAAECMCAYAAAAAAACIEcEAAAAAAAAAMSIYAAAAAAAAIEYEAwAAAAAAAMSIYAAAAAAAAIAYEQwAAAAAAAAQI4IBAAAAAAAAYkQwAAAAAAAAQIwIBgAAAAAAAIgRwQAAAAAAAAAxIhgAAAAAAAAgRgQDAAAAAAAAxIhgAAAAAAAAgBgRDAAAAAAAABAjggEAAAAAAABiRDAAAAAAAABAjAgGAAAAAAAAiBHBAAAAAAAAADEiGAAAAAAAACBGBAMAAAAAAADEiGAAAAAAAACAGBEMAAAAAAAAECOCAQAAAAAAAGJEMAAAAAAAAECMCAYAAAAAAACIEcEAAAAAAAAAMSIYAAAAAAAAIEYEAwAAAAAAAMSIYAAAAAAAAIAYEQwAAAAAAAAQI4IBAAAAAAAAYkQwAAAAAAAAQIwIBgAAAAAAAIgRwQAAAAAAAAAxIhgAAAAAAAAgRgQDAAAAAAAAxIhgAAAAAAAAgBgRDAAAAAAAABAjggEAAAAAAABiRDAAAAAAAABAjAgGAAAAAAAAiBHBAAAAAAAAADEiGAAAAAAAACBGBAMAAAAAAADEiGAAAAAAAACAGBEMAAAAAAAAECOCAQAAAAAAAGJEMAAAAAAAAECMCAYAAAAAAACIEcEAAAAAAAAAMSIYAAAAAAAAIEYEAwAAAAAAAMSIYAAAAAAAAIAYEQwAAAAAAAAQI4IBAAAAAAAAYkQwAAAAAAAAQIwIBgAAAAAAAIgRwQAAAAAAAAAxIhgAAAAAAAAgRgQDAAAAAAAAxIhgAAAAAAAAgBgRDAAAAAAAABAjggEAAAAAAABiRDAAAAAAAABAjAgGAAAAAAAAiBHBAAAAAAAAADEiGAAAAAAAACBGBAMAAAAAAADEiGAAAAAAAACAGBEMAAAAAAAAECOCAQAAAAAAAGJEMAAAAAAAAECMCAYAAAAAAACIEcEAAAAAAAAAMSIYAAAAAAAAIEYEAwAAAAAAAMSIYAAAAAAAAIAYEQwAAAAAAAAQI4IBAAAAAAAAYkQwAAAAAAAAQIwIBgAAAAAAAIgRwQAAAAAAAAAxIhgAAAAAAAAgRgQDAAAAAAAAxIhgAAAAAAAAgBgRDAAAAAAAABAjggEAAAAAAABiRDAAAAAAAABAjAgGAAAAAAAAiBHBAAAAAAAAADEiGAAAAAAAACBGBAMAAAAAAADEiGAAAAAAAACAGBEMAAAAAAAAECOCAQAAAAAAAGJEMAAAAAAAAECMCAYAAAAAAACIEcEAAAAAAAAAMSIYAAAAAAAAIEYEAwAAAAAAAMSIYAAAAAAAAIAYEQwAAAAAAAAQI4IBAAAAAAAAYkQwAAAAAAAAQIwIBgAAAAAAAIgRwQAAAAAAAAAxIhgAAAAAAAAgRgQDAAAAAAAAxIhgAAAAAAAAgBgRDAAAAAAAABAjggEAAAAAAABiRDAAAAAAAABAjAgGAAAAAAAAiBHBAAAAAAAAADEiGAAAAAAAACBGBAMAAAAAAADEiGAAAAAAAACAGBEMAAAAAAAAECOCAQAAAAAAAGJEMAAAAAAAAECMCAYAAAAAAACIEcEAAAAAAAAAMSIYAAAAAAAAIEYEAwAAAAAAAC25pIAAAAklSURBVMSIYAAAAAAAAIAYEQwAAAAAAAAQI4IBAAAAAAAAYkQwAAAAAAAAQIwIBgAAAAAAAIgRwQAAAAAAAAAxIhgAAAAAAAAgRgQDAAAAAAAAxIhgAAAAAAAAgBgRDAAAAAAAABAjggEAAAAAAABiRDAAAAAAAABAjAgGAAAAAAAAiBHBAAAAAAAAADEiGAAAAAAAACBGBAMAAAAAAADEiGAAAAAAAACAGBEMAAAAAAAAECOCAQAAAAAAAGJEMAAAAAAAAECMCAYAAAAAAACIEcEAAAAAAAAAMSIYAAAAAAAAIEYEAwAAAAAAAMSIYAAAAAAAAIAYEQwAAAAAAAAQI4IBAAAAAAAAYkQwAAAAAAAAQIwIBgAAAAAAAIgRwQAAAAAAAAAxIhgAAAAAAAAgRgQDAAAAAAAAxIhgAAAAAAAAgBgRDAAAAAAAABAjggEAAAAAAABiRDAAAAAAAABAjAgGAAAAAAAAiBHBAAAAAAAAADEiGAAAAAAAACBGBAMAAAAAAADEiGAAAAAAAACAGBEMAAAAAAAAECOCAQAAAAAAAGJEMAAAAAAAAECMCAYAAAAAAACIEcEAAAAAAAAAMSIYAAAAAAAAIEYEAwAAAAAAAMSIYAAAAAAAAIAYEQwAAAAAAAAQI4IBAAAAAAAAYkQwAAAAAAAAQIwIBgAAAAAAAIgRwQAAAAAAAAAxIhgAAAAAAAAgRgQDAAAAAAAAxIhgAAAAAAAAgBgRDAAAAAAAABAjggEAAAAAAABiRDAAAAAAAABAjAgGAAAAAAAAiBHBAAAAAAAAADEiGAAAAAAAACBGBAMAAAAAAADEiGAAAAAAAACAGBEMAAAAAAAAECOCAQAAAAAAAGJEMAAAAAAAAECMCAYAAAAAAACIEcEAAAAAAAAAMSIYAAAAAAAAIEYEAwAAAAAAAMSIYAAAAAAAAIAYEQwAAAAAAAAQI4IBAAAAAAAAYkQwAAAAAAAAQIwIBgAAAAAAAIgRwQAAAAAAAAAxIhgAAAAAAAAgRgQDAAAAAAAAxIhgAAAAAAAAgBgRDAAAAAAAABAjggEAAAAAAABiRDAAAAAAAABAjAgGAAAAAAAAiBHBAAAAAAAAADEiGAAAAAAAACBGBAMAAAAAAADEiGAAAAAAAACAGBEMAAAAAAAAECOCAQAAAAAAAGJEMAAAAAAAAECMCAYAAAAAAACIEcEAAAAAAAAAMSIYAAAAAAAAIEYEAwAAAAAAAMSIYAAAAAAAAIAYEQwAAAAAAAAQI4IBAAAAAAAAYkQwAAAAAAAAQIwIBgAAAAAAAIgRwQAAAAAAAAAxIhgAAAAAAAAgRgQDAAAAAAAAxIhgAAAAAAAAgBgRDAAAAAAAABAjggEAAAAAAABiRDAAAAAAAABAjAgGAAAAAAAAiBHBAAAAAAAAADEiGAAAAAAAACBGBAMAAAAAAADEiGAAAAAAAACAGBEMAAAAAAAAECOCAQAAAAAAAGJEMAAAAAAAAECMCAYAAAAAAACIEcEAAAAAAAAAMSIYAAAAAAAAIEYEAwAAAAAAAMSIYAAAAAAAAIAYEQwAAAAAAAAQI4IBAAAAAAAAYkQwAAAAAAAAQIwIBgAAAAAAAIgRwQAAAAAAAAAxIhgAAAAAAAAgRgQDAAAAAAAAxIhgAAAAAAAAgBgRDAAAAAAAABAjggEAAAAAAABiRDAAAAAAAABAjAgGAAAAAAAAiBHBAAAAAAAAADEiGAAAAAAAACBGBAMAAAAAAADEiGAAAAAAAACAGBEMAAAAAAAAECOCAQAAAAAAAGJEMAAAAAAAAECMCAYAAAAAAACIEcEAAAAAAAAAMSIYAAAAAAAAIEYEAwAAAAAAAMSIYAAAAAAAAIAYEQwAAAAAAAAQI4IBAAAAAAAAYkQwAAAAAAAAQIwIBgAAAAAAAIgRwQAAAAAAAAAxIhgAAAAAAAAgRgQDAAAAAAAAxIhgAAAAAAAAgBgRDAAAAAAAABAjggEAAAAAAABiRDAAAAAAAABAjAgGAAAAAAAAiBHBAAAAAAAAADEiGAAAAAAAACBGBAMAAAAAAADEiGAAAAAAAACAGBEMAAAAAAAAECOCAQAAAAAAAGJEMAAAAAAAAECMCAYAAAAAAACIEcEAAAAAAAAAMSIYAAAAAAAAIEYEAwAAAAAAAMSIYAAAAAAAAIAYEQwAAAAAAAAQI4IBAAAAAAAAYkQwAAAAAAAAQIwIBgAAAAAAAIgRwQAAAAAAAAAxIhgAAAAAAAAgRgQDAAAAAAAAxIhgAAAAAAAAgBgRDAAAAAAAABAjggEAAAAAAABiRDAAAAAAAABAjAgGAAAAAAAAiBHBAAAAAAAAADEiGAAAAAAAACBGBAMAAAAAAADEiGAAAAAAAACAGBEMAAAAAAAAECOCAQAAAAAAAGJEMAAAAAAAAECMCAYAAAAAAACIEcEAAAAAAAAAMSIYAAAAAAAAIEYEAwAAAAAAAMSIYAAAAAAAAIAYEQwAAAAAAAAQI4IBAAAAAAAAYkQwAAAAAAAAQIwIBgAAAAAAAIgRwQAAAAAAAAAxIhgAAAAAAAAgRgQDAAAAAAAAxIhgAAAAAAAAgBgRDAAAAAAAABAjggEAAAAAAABiRDAAAAAAAABAjAgGAAAAAAAAiBHBAAAAAAAAADEiGAAAAAAAACBGBAMAAAAAAADEiGAAAAAAAACAGBEMAAAAAAAAECOCAQAAAAAAAGJEMAAAAAAAAECMCAYAAAAAAACIEcEAAAAAAAAAMSIYAAAAAAAAIEYEAwAAAAAAAMSIYAAAAAAAAIAYEQwAAAAAAAAQI4IBAAAAAAAAYkQwAAAAAAAAQIwIBgAAAAAAAIgRwQAAAAAAAAAxIhgAAAAAAAAgRgQDAAAAAAAAxIhgAAAAAAAAgBgRDAAAAAAAABAjggEAAAAAAABiRDAAAAAAAABAjAgGAAAAAAAAiBHBAAAAAAAAADEiGAAAAAAAACBGBAMAAAAAAADEiGAAAAAAAACAGBEMAAAAAAAAECOCAQAAAAAAAGJEMAAAAAAAAECMCAYAAAAAAACIEcEAAAAAAAAAMSIYAAAAAAAAIEYEAwAAAAAAAMSIYAAAAAAAAAAAAAAAAAAAAAAAAAAAAICbAU29DHDSZFhTAAAAAElFTkSuQmCC&quot;,&quot;width&quot;:&quot;1922&quot;,&quot;height&quot;:&quot;1082&quot;,&quot;x&quot;:0,&quot;y&quot;:0}" math="0" shadow="0">
      <root>
        <mxCell id="0" />
        <mxCell id="1" parent="0" />
        <mxCell id="f4WoowLcpt9e6edPMzah-1" value="总分" style="rounded=0;whiteSpace=wrap;html=1;" vertex="1" parent="1">
          <mxGeometry x="53" y="260" width="70" height="40" as="geometry" />
        </mxCell>
        <mxCell id="f4WoowLcpt9e6edPMzah-26" style="rounded=0;orthogonalLoop=1;jettySize=auto;html=1;exitX=1;exitY=0.5;exitDx=0;exitDy=0;entryX=0;entryY=0.5;entryDx=0;entryDy=0;fontSize=12;fontColor=#000000;dashed=1;endArrow=none;endFill=0;fillColor=#fff2cc;strokeColor=#d6b656;strokeWidth=2;" edge="1" parent="1" source="f4WoowLcpt9e6edPMzah-2" target="f4WoowLcpt9e6edPMzah-18">
          <mxGeometry relative="1" as="geometry" />
        </mxCell>
        <mxCell id="f4WoowLcpt9e6edPMzah-27" style="edgeStyle=none;rounded=0;orthogonalLoop=1;jettySize=auto;html=1;exitX=1;exitY=0.5;exitDx=0;exitDy=0;entryX=0;entryY=0.5;entryDx=0;entryDy=0;dashed=1;fontSize=12;fontColor=#000000;endArrow=none;endFill=0;fillColor=#fff2cc;strokeColor=#d6b656;strokeWidth=2;" edge="1" parent="1" source="f4WoowLcpt9e6edPMzah-2" target="f4WoowLcpt9e6edPMzah-19">
          <mxGeometry relative="1" as="geometry" />
        </mxCell>
        <mxCell id="f4WoowLcpt9e6edPMzah-28" style="edgeStyle=none;rounded=0;orthogonalLoop=1;jettySize=auto;html=1;exitX=1;exitY=0.5;exitDx=0;exitDy=0;entryX=0;entryY=0.5;entryDx=0;entryDy=0;dashed=1;fontSize=12;fontColor=#000000;endArrow=none;endFill=0;fillColor=#fff2cc;strokeColor=#d6b656;strokeWidth=2;" edge="1" parent="1" source="f4WoowLcpt9e6edPMzah-2" target="f4WoowLcpt9e6edPMzah-20">
          <mxGeometry relative="1" as="geometry" />
        </mxCell>
        <mxCell id="f4WoowLcpt9e6edPMzah-2" value="内容" style="rounded=0;whiteSpace=wrap;html=1;" vertex="1" parent="1">
          <mxGeometry x="150" y="190" width="70" height="40" as="geometry" />
        </mxCell>
        <mxCell id="f4WoowLcpt9e6edPMzah-29" style="edgeStyle=none;rounded=0;orthogonalLoop=1;jettySize=auto;html=1;exitX=1;exitY=0.5;exitDx=0;exitDy=0;entryX=0;entryY=0.5;entryDx=0;entryDy=0;dashed=1;fontSize=12;fontColor=#000000;endArrow=none;endFill=0;strokeColor=#A680B8;strokeWidth=2;" edge="1" parent="1" source="f4WoowLcpt9e6edPMzah-3" target="f4WoowLcpt9e6edPMzah-18">
          <mxGeometry relative="1" as="geometry" />
        </mxCell>
        <mxCell id="f4WoowLcpt9e6edPMzah-30" style="edgeStyle=none;rounded=0;orthogonalLoop=1;jettySize=auto;html=1;exitX=1;exitY=0.5;exitDx=0;exitDy=0;entryX=0;entryY=0.5;entryDx=0;entryDy=0;dashed=1;fontSize=12;fontColor=#000000;endArrow=none;endFill=0;strokeColor=#A680B8;strokeWidth=2;" edge="1" parent="1" source="f4WoowLcpt9e6edPMzah-3" target="f4WoowLcpt9e6edPMzah-21">
          <mxGeometry relative="1" as="geometry" />
        </mxCell>
        <mxCell id="f4WoowLcpt9e6edPMzah-3" value="结构" style="rounded=0;whiteSpace=wrap;html=1;" vertex="1" parent="1">
          <mxGeometry x="150" y="260" width="70" height="40" as="geometry" />
        </mxCell>
        <mxCell id="f4WoowLcpt9e6edPMzah-31" style="edgeStyle=none;rounded=0;orthogonalLoop=1;jettySize=auto;html=1;exitX=1;exitY=0.5;exitDx=0;exitDy=0;entryX=0;entryY=0.5;entryDx=0;entryDy=0;dashed=1;fontSize=12;fontColor=#000000;endArrow=none;endFill=0;strokeColor=#7EA6E0;strokeWidth=2;" edge="1" parent="1" source="f4WoowLcpt9e6edPMzah-4" target="f4WoowLcpt9e6edPMzah-19">
          <mxGeometry relative="1" as="geometry" />
        </mxCell>
        <mxCell id="f4WoowLcpt9e6edPMzah-32" style="edgeStyle=none;rounded=0;orthogonalLoop=1;jettySize=auto;html=1;exitX=1;exitY=0.5;exitDx=0;exitDy=0;entryX=0;entryY=0.5;entryDx=0;entryDy=0;dashed=1;fontSize=12;fontColor=#000000;endArrow=none;endFill=0;strokeColor=#7EA6E0;strokeWidth=2;" edge="1" parent="1" source="f4WoowLcpt9e6edPMzah-4" target="f4WoowLcpt9e6edPMzah-20">
          <mxGeometry relative="1" as="geometry" />
        </mxCell>
        <mxCell id="f4WoowLcpt9e6edPMzah-4" value="语言" style="rounded=0;whiteSpace=wrap;html=1;" vertex="1" parent="1">
          <mxGeometry x="150" y="330" width="70" height="40" as="geometry" />
        </mxCell>
        <mxCell id="f4WoowLcpt9e6edPMzah-5" value="+" style="text;html=1;strokeColor=none;fillColor=none;align=center;verticalAlign=middle;whiteSpace=wrap;rounded=0;fontSize=18;" vertex="1" parent="1">
          <mxGeometry x="155" y="230" width="60" height="30" as="geometry" />
        </mxCell>
        <mxCell id="f4WoowLcpt9e6edPMzah-6" value="+" style="text;html=1;strokeColor=none;fillColor=none;align=center;verticalAlign=middle;whiteSpace=wrap;rounded=0;fontSize=18;" vertex="1" parent="1">
          <mxGeometry x="155" y="300" width="60" height="30" as="geometry" />
        </mxCell>
        <mxCell id="f4WoowLcpt9e6edPMzah-7" value="=" style="text;html=1;strokeColor=none;fillColor=none;align=center;verticalAlign=middle;whiteSpace=wrap;rounded=0;fontSize=18;" vertex="1" parent="1">
          <mxGeometry x="108" y="265" width="60" height="30" as="geometry" />
        </mxCell>
        <mxCell id="f4WoowLcpt9e6edPMzah-18" value="&lt;div style=&quot;text-align: center&quot;&gt;&lt;b&gt;基础特征&lt;/b&gt;&lt;/div&gt;&lt;span style=&quot;margin: 0px ; padding: 0px ; outline: none ; font-family: &amp;#34;pingfang sc&amp;#34; , &amp;#34;helvetica&amp;#34; , &amp;#34;tahoma&amp;#34; , &amp;#34;arial&amp;#34; , &amp;#34;hiragino sans gb&amp;#34; , &amp;#34;microsoft yahei&amp;#34; , &amp;#34;simsun&amp;#34; , &amp;#34;heiti&amp;#34; , sans-serif ; font-size: 10.8px&quot;&gt;年级，字数，词语数，段落数，句子数，不重复字数，段落平均字数，&lt;/span&gt;&lt;span style=&quot;margin: 0px ; padding: 0px ; outline: none ; font-family: &amp;#34;pingfang sc&amp;#34; , &amp;#34;helvetica&amp;#34; , &amp;#34;tahoma&amp;#34; , &amp;#34;arial&amp;#34; , &amp;#34;hiragino sans gb&amp;#34; , &amp;#34;microsoft yahei&amp;#34; , &amp;#34;simsun&amp;#34; , &amp;#34;heiti&amp;#34; , sans-serif ; font-size: 10.8px&quot;&gt;句子平均字数，段落平均句子数，&lt;span style=&quot;font-family: &amp;#34;pingfang sc&amp;#34; , &amp;#34;helvetica&amp;#34; , &amp;#34;tahoma&amp;#34; , &amp;#34;arial&amp;#34; , &amp;#34;hiragino sans gb&amp;#34; , &amp;#34;microsoft yahei&amp;#34; , &amp;#34;simsun&amp;#34; , &amp;#34;heiti&amp;#34; , sans-serif ; background-color: rgb(255 , 255 , 255)&quot;&gt;最低字数，最高字数&lt;/span&gt;等&lt;/span&gt;" style="text;html=1;strokeColor=none;fillColor=none;align=left;verticalAlign=middle;whiteSpace=wrap;rounded=0;fontSize=12;labelBorderColor=default;" vertex="1" parent="1">
          <mxGeometry x="278" y="130" width="234" height="71" as="geometry" />
        </mxCell>
        <mxCell id="f4WoowLcpt9e6edPMzah-19" value="&lt;div style=&quot;text-align: center&quot;&gt;&lt;b&gt;内容相关特征&lt;/b&gt;&lt;/div&gt;&lt;span style=&quot;font-family: &amp;#34;pingfang sc&amp;#34; , &amp;#34;helvetica&amp;#34; , &amp;#34;tahoma&amp;#34; , &amp;#34;arial&amp;#34; , &amp;#34;hiragino sans gb&amp;#34; , &amp;#34;microsoft yahei&amp;#34; , &amp;#34;simsun&amp;#34; , &amp;#34;heiti&amp;#34; , sans-serif ; font-size: 10.8px&quot;&gt;字数，词语数，名词个数，动词个数，形容词个数，副词个数，连词个数；成语个数，俗语个数，名言个数；错别字个数；主题词个数，主题类型等&lt;/span&gt;" style="text;html=1;strokeColor=none;fillColor=none;align=left;verticalAlign=middle;whiteSpace=wrap;rounded=0;fontSize=12;labelBorderColor=default;" vertex="1" parent="1">
          <mxGeometry x="278" y="209.5" width="234" height="71" as="geometry" />
        </mxCell>
        <mxCell id="f4WoowLcpt9e6edPMzah-20" value="&lt;div style=&quot;text-align: center&quot;&gt;&lt;b&gt;语言相关特征&lt;/b&gt;&lt;/div&gt;&lt;span style=&quot;margin: 0px ; padding: 0px ; outline: none ; font-family: &amp;#34;pingfang sc&amp;#34; , &amp;#34;helvetica&amp;#34; , &amp;#34;tahoma&amp;#34; , &amp;#34;arial&amp;#34; , &amp;#34;hiragino sans gb&amp;#34; , &amp;#34;microsoft yahei&amp;#34; , &amp;#34;simsun&amp;#34; , &amp;#34;heiti&amp;#34; , sans-serif ; font-size: 10.8px&quot;&gt;&lt;span style=&quot;font-family: &amp;#34;pingfang sc&amp;#34; , &amp;#34;helvetica&amp;#34; , &amp;#34;tahoma&amp;#34; , &amp;#34;arial&amp;#34; , &amp;#34;hiragino sans gb&amp;#34; , &amp;#34;microsoft yahei&amp;#34; , &amp;#34;simsun&amp;#34; , &amp;#34;heiti&amp;#34; , sans-serif&quot;&gt;描写总个数，描写种数，修辞总个数，修辞种数，各类修辞描写、五感描写的个数&lt;/span&gt;等&lt;/span&gt;" style="text;html=1;strokeColor=none;fillColor=none;align=left;verticalAlign=middle;whiteSpace=wrap;rounded=0;fontSize=12;labelBorderColor=default;" vertex="1" parent="1">
          <mxGeometry x="278" y="361" width="234" height="71" as="geometry" />
        </mxCell>
        <mxCell id="f4WoowLcpt9e6edPMzah-21" value="&lt;div style=&quot;text-align: center&quot;&gt;&lt;b&gt;结构相关特征&lt;/b&gt;&lt;/div&gt;&lt;span style=&quot;margin: 0px ; padding: 0px ; outline: none ; font-family: &amp;#34;pingfang sc&amp;#34; , &amp;#34;helvetica&amp;#34; , &amp;#34;tahoma&amp;#34; , &amp;#34;arial&amp;#34; , &amp;#34;hiragino sans gb&amp;#34; , &amp;#34;microsoft yahei&amp;#34; , &amp;#34;simsun&amp;#34; , &amp;#34;heiti&amp;#34; , sans-serif ; font-size: 10.8px&quot;&gt;&lt;span style=&quot;font-family: &amp;#34;pingfang sc&amp;#34; , &amp;#34;helvetica&amp;#34; , &amp;#34;tahoma&amp;#34; , &amp;#34;arial&amp;#34; , &amp;#34;hiragino sans gb&amp;#34; , &amp;#34;microsoft yahei&amp;#34; , &amp;#34;simsun&amp;#34; , &amp;#34;heiti&amp;#34; , sans-serif&quot;&gt;年级，字数，词语数，段落数，句子数，连词个数，段落平均字数，句子平均字数, 开头占比、结尾占比&lt;/span&gt;等&lt;/span&gt;" style="text;html=1;strokeColor=none;fillColor=none;align=left;verticalAlign=middle;whiteSpace=wrap;rounded=0;fontSize=12;labelBorderColor=default;" vertex="1" parent="1">
          <mxGeometry x="278" y="290" width="234" height="71" as="geometry" />
        </mxCell>
      </root>
    </mxGraphModel>
  </diagram>
</mxfile>
